<mxfile host="app.diagrams.net" agent="Mozilla/5.0 (Windows NT 10.0; Win64; x64) AppleWebKit/537.36 (KHTML, like Gecko) Chrome/131.0.0.0 Safari/537.36" version="26.0.2">
  <diagram name="第 1 页" id="iHpcmPApa4Cw_nAH7jWY">
    <mxGraphModel dx="1430" dy="757" grid="1" gridSize="10" guides="1" tooltips="1" connect="1" arrows="1" fold="1" page="1" pageScale="1" pageWidth="827" pageHeight="1169" math="0" shadow="0">
      <root>
        <mxCell id="0" />
        <mxCell id="1" parent="0" />
        <mxCell id="eOBDICQYT13X9fMPjn8y-1" value="" style="ellipse;whiteSpace=wrap;html=1;aspect=fixed;fillColor=#000000;movable=1;resizable=1;rotatable=1;deletable=1;editable=1;locked=0;connectable=1;" vertex="1" parent="1">
          <mxGeometry x="200" y="590" width="8" height="8" as="geometry" />
        </mxCell>
        <mxCell id="eOBDICQYT13X9fMPjn8y-2" value="" style="ellipse;whiteSpace=wrap;html=1;aspect=fixed;fillColor=#f8cecc;strokeColor=#b85450;movable=1;resizable=1;rotatable=1;deletable=1;editable=1;locked=0;connectable=1;" vertex="1" parent="1">
          <mxGeometry x="100" y="460" width="20" height="20" as="geometry" />
        </mxCell>
        <mxCell id="eOBDICQYT13X9fMPjn8y-3" value="" style="ellipse;whiteSpace=wrap;html=1;aspect=fixed;fillColor=#d5e8d4;strokeColor=#82b366;movable=1;resizable=1;rotatable=1;deletable=1;editable=1;locked=0;connectable=1;" vertex="1" parent="1">
          <mxGeometry x="300" y="505" width="20" height="20" as="geometry" />
        </mxCell>
        <mxCell id="eOBDICQYT13X9fMPjn8y-6" value="" style="endArrow=none;html=1;rounded=0;entryX=0.683;entryY=0.9;entryDx=0;entryDy=0;entryPerimeter=0;exitX=0;exitY=0;exitDx=0;exitDy=0;movable=1;resizable=1;rotatable=1;deletable=1;editable=1;locked=0;connectable=1;" edge="1" parent="1" source="eOBDICQYT13X9fMPjn8y-1" target="eOBDICQYT13X9fMPjn8y-2">
          <mxGeometry width="50" height="50" relative="1" as="geometry">
            <mxPoint x="170" y="560" as="sourcePoint" />
            <mxPoint x="220" y="510" as="targetPoint" />
          </mxGeometry>
        </mxCell>
        <mxCell id="eOBDICQYT13X9fMPjn8y-7" value="" style="endArrow=none;html=1;rounded=0;entryX=1;entryY=0.5;entryDx=0;entryDy=0;exitX=0;exitY=0.75;exitDx=0;exitDy=0;exitPerimeter=0;movable=1;resizable=1;rotatable=1;deletable=1;editable=1;locked=0;connectable=1;" edge="1" parent="1" source="eOBDICQYT13X9fMPjn8y-3" target="eOBDICQYT13X9fMPjn8y-1">
          <mxGeometry width="50" height="50" relative="1" as="geometry">
            <mxPoint x="334" y="642.5" as="sourcePoint" />
            <mxPoint x="260" y="547.5" as="targetPoint" />
          </mxGeometry>
        </mxCell>
        <mxCell id="eOBDICQYT13X9fMPjn8y-8" value="&lt;font style=&quot;font-size: 15px;&quot;&gt;foot_l&lt;/font&gt;" style="text;html=1;align=center;verticalAlign=middle;whiteSpace=wrap;rounded=0;movable=1;resizable=1;rotatable=1;deletable=1;editable=1;locked=0;connectable=1;" vertex="1" parent="1">
          <mxGeometry x="40" y="470" width="50" height="25" as="geometry" />
        </mxCell>
        <mxCell id="eOBDICQYT13X9fMPjn8y-9" value="&lt;font style=&quot;font-size: 15px;&quot;&gt;foot_r&lt;/font&gt;" style="text;html=1;align=center;verticalAlign=middle;whiteSpace=wrap;rounded=0;movable=1;resizable=1;rotatable=1;deletable=1;editable=1;locked=0;connectable=1;" vertex="1" parent="1">
          <mxGeometry x="340" y="505" width="50" height="25" as="geometry" />
        </mxCell>
        <mxCell id="eOBDICQYT13X9fMPjn8y-10" value="actor location" style="text;html=1;align=center;verticalAlign=middle;whiteSpace=wrap;rounded=0;movable=1;resizable=1;rotatable=1;deletable=1;editable=1;locked=0;connectable=1;" vertex="1" parent="1">
          <mxGeometry x="130" y="600" width="120" height="30" as="geometry" />
        </mxCell>
        <mxCell id="eOBDICQYT13X9fMPjn8y-17" value="" style="group;rotation=65;" vertex="1" connectable="0" parent="1">
          <mxGeometry x="540" y="389" width="259.99999999999994" height="195" as="geometry" />
        </mxCell>
        <mxCell id="eOBDICQYT13X9fMPjn8y-59" value="" style="group" vertex="1" connectable="0" parent="1">
          <mxGeometry x="580" y="460" width="220" height="148" as="geometry" />
        </mxCell>
        <mxCell id="eOBDICQYT13X9fMPjn8y-54" value="" style="ellipse;whiteSpace=wrap;html=1;aspect=fixed;fillColor=#000000;movable=1;resizable=1;rotatable=1;deletable=1;editable=1;locked=0;connectable=1;" vertex="1" parent="eOBDICQYT13X9fMPjn8y-59">
          <mxGeometry x="100" y="130" width="8" height="8" as="geometry" />
        </mxCell>
        <mxCell id="eOBDICQYT13X9fMPjn8y-55" value="" style="ellipse;whiteSpace=wrap;html=1;aspect=fixed;fillColor=#f8cecc;strokeColor=#b85450;movable=1;resizable=1;rotatable=1;deletable=1;editable=1;locked=0;connectable=1;" vertex="1" parent="eOBDICQYT13X9fMPjn8y-59">
          <mxGeometry width="20" height="20" as="geometry" />
        </mxCell>
        <mxCell id="eOBDICQYT13X9fMPjn8y-56" value="" style="ellipse;whiteSpace=wrap;html=1;aspect=fixed;fillColor=#d5e8d4;strokeColor=#82b366;movable=1;resizable=1;rotatable=1;deletable=1;editable=1;locked=0;connectable=1;" vertex="1" parent="eOBDICQYT13X9fMPjn8y-59">
          <mxGeometry x="200" y="45" width="20" height="20" as="geometry" />
        </mxCell>
        <mxCell id="eOBDICQYT13X9fMPjn8y-57" value="" style="endArrow=none;html=1;rounded=0;entryX=0.683;entryY=0.9;entryDx=0;entryDy=0;entryPerimeter=0;exitX=0;exitY=0;exitDx=0;exitDy=0;movable=1;resizable=1;rotatable=1;deletable=1;editable=1;locked=0;connectable=1;" edge="1" parent="eOBDICQYT13X9fMPjn8y-59" source="eOBDICQYT13X9fMPjn8y-54" target="eOBDICQYT13X9fMPjn8y-55">
          <mxGeometry width="50" height="50" relative="1" as="geometry">
            <mxPoint x="70" y="100" as="sourcePoint" />
            <mxPoint x="120" y="50" as="targetPoint" />
          </mxGeometry>
        </mxCell>
        <mxCell id="eOBDICQYT13X9fMPjn8y-58" value="" style="endArrow=none;html=1;rounded=0;entryX=1;entryY=0.5;entryDx=0;entryDy=0;exitX=0;exitY=0.75;exitDx=0;exitDy=0;exitPerimeter=0;movable=1;resizable=1;rotatable=1;deletable=1;editable=1;locked=0;connectable=1;" edge="1" parent="eOBDICQYT13X9fMPjn8y-59" source="eOBDICQYT13X9fMPjn8y-56" target="eOBDICQYT13X9fMPjn8y-54">
          <mxGeometry width="50" height="50" relative="1" as="geometry">
            <mxPoint x="234" y="182.5" as="sourcePoint" />
            <mxPoint x="160" y="87.5" as="targetPoint" />
          </mxGeometry>
        </mxCell>
        <mxCell id="eOBDICQYT13X9fMPjn8y-53" value="" style="group;rotation=-30;" vertex="1" connectable="0" parent="eOBDICQYT13X9fMPjn8y-59">
          <mxGeometry x="-33" y="6" width="220" height="138" as="geometry" />
        </mxCell>
        <mxCell id="eOBDICQYT13X9fMPjn8y-48" value="" style="ellipse;whiteSpace=wrap;html=1;aspect=fixed;fillColor=#000000;movable=1;resizable=1;rotatable=1;deletable=1;editable=1;locked=0;connectable=1;rotation=-30;" vertex="1" parent="eOBDICQYT13X9fMPjn8y-53">
          <mxGeometry x="133" y="124" width="8" height="8" as="geometry" />
        </mxCell>
        <mxCell id="eOBDICQYT13X9fMPjn8y-49" value="" style="ellipse;whiteSpace=wrap;html=1;aspect=fixed;fillColor=#f8cecc;strokeColor=#b85450;movable=1;resizable=1;rotatable=1;deletable=1;editable=1;locked=0;connectable=1;rotation=-30;" vertex="1" parent="eOBDICQYT13X9fMPjn8y-53">
          <mxGeometry x="-16" y="58" width="20" height="20" as="geometry" />
        </mxCell>
        <mxCell id="eOBDICQYT13X9fMPjn8y-50" value="" style="ellipse;whiteSpace=wrap;html=1;aspect=fixed;fillColor=#d5e8d4;strokeColor=#82b366;movable=1;resizable=1;rotatable=1;deletable=1;editable=1;locked=0;connectable=1;rotation=-30;" vertex="1" parent="eOBDICQYT13X9fMPjn8y-53">
          <mxGeometry x="180" y="-3" width="20" height="20" as="geometry" />
        </mxCell>
        <mxCell id="eOBDICQYT13X9fMPjn8y-51" value="" style="endArrow=none;dashed=1;html=1;rounded=0;entryX=0.683;entryY=0.9;entryDx=0;entryDy=0;entryPerimeter=0;exitX=0;exitY=0;exitDx=0;exitDy=0;movable=1;resizable=1;rotatable=1;deletable=1;editable=1;locked=0;connectable=1;" edge="1" parent="eOBDICQYT13X9fMPjn8y-53" source="eOBDICQYT13X9fMPjn8y-48" target="eOBDICQYT13X9fMPjn8y-49">
          <mxGeometry width="50" height="50" relative="1" as="geometry">
            <mxPoint x="91" y="116" as="sourcePoint" />
            <mxPoint x="109" y="48" as="targetPoint" />
          </mxGeometry>
        </mxCell>
        <mxCell id="eOBDICQYT13X9fMPjn8y-52" value="" style="endArrow=none;dashed=1;html=1;rounded=0;entryX=1;entryY=0.5;entryDx=0;entryDy=0;exitX=0;exitY=0.75;exitDx=0;exitDy=0;exitPerimeter=0;movable=1;resizable=1;rotatable=1;deletable=1;editable=1;locked=0;connectable=1;" edge="1" parent="eOBDICQYT13X9fMPjn8y-53" source="eOBDICQYT13X9fMPjn8y-50" target="eOBDICQYT13X9fMPjn8y-48">
          <mxGeometry width="50" height="50" relative="1" as="geometry">
            <mxPoint x="274" y="105" as="sourcePoint" />
            <mxPoint x="163" y="60" as="targetPoint" />
          </mxGeometry>
        </mxCell>
        <mxCell id="eOBDICQYT13X9fMPjn8y-85" value="" style="endArrow=classic;html=1;rounded=0;entryX=0;entryY=1;entryDx=0;entryDy=0;exitX=0.95;exitY=0.312;exitDx=0;exitDy=0;exitPerimeter=0;fillColor=#dae8fc;strokeColor=#6c8ebf;strokeWidth=2;dashed=1;" edge="1" parent="eOBDICQYT13X9fMPjn8y-59" source="eOBDICQYT13X9fMPjn8y-49" target="eOBDICQYT13X9fMPjn8y-55">
          <mxGeometry width="50" height="50" relative="1" as="geometry">
            <mxPoint x="-40" y="80" as="sourcePoint" />
            <mxPoint y="20" as="targetPoint" />
          </mxGeometry>
        </mxCell>
        <mxCell id="eOBDICQYT13X9fMPjn8y-64" value="" style="group" vertex="1" connectable="0" parent="1">
          <mxGeometry x="580" y="700" width="240" height="148" as="geometry" />
        </mxCell>
        <mxCell id="eOBDICQYT13X9fMPjn8y-65" value="" style="ellipse;whiteSpace=wrap;html=1;aspect=fixed;fillColor=#000000;movable=1;resizable=1;rotatable=1;deletable=1;editable=1;locked=0;connectable=1;" vertex="1" parent="eOBDICQYT13X9fMPjn8y-64">
          <mxGeometry x="100" y="130" width="8" height="8" as="geometry" />
        </mxCell>
        <mxCell id="eOBDICQYT13X9fMPjn8y-66" value="" style="ellipse;whiteSpace=wrap;html=1;aspect=fixed;fillColor=#f8cecc;strokeColor=#b85450;movable=1;resizable=1;rotatable=1;deletable=1;editable=1;locked=0;connectable=1;" vertex="1" parent="eOBDICQYT13X9fMPjn8y-64">
          <mxGeometry width="20" height="20" as="geometry" />
        </mxCell>
        <mxCell id="eOBDICQYT13X9fMPjn8y-67" value="" style="ellipse;whiteSpace=wrap;html=1;aspect=fixed;fillColor=#d5e8d4;strokeColor=#82b366;movable=1;resizable=1;rotatable=1;deletable=1;editable=1;locked=0;connectable=1;" vertex="1" parent="eOBDICQYT13X9fMPjn8y-64">
          <mxGeometry x="200" y="45" width="20" height="20" as="geometry" />
        </mxCell>
        <mxCell id="eOBDICQYT13X9fMPjn8y-68" value="" style="endArrow=none;html=1;rounded=0;entryX=0.683;entryY=0.9;entryDx=0;entryDy=0;entryPerimeter=0;exitX=0;exitY=0;exitDx=0;exitDy=0;movable=1;resizable=1;rotatable=1;deletable=1;editable=1;locked=0;connectable=1;" edge="1" parent="eOBDICQYT13X9fMPjn8y-64" source="eOBDICQYT13X9fMPjn8y-65" target="eOBDICQYT13X9fMPjn8y-66">
          <mxGeometry width="50" height="50" relative="1" as="geometry">
            <mxPoint x="70" y="100" as="sourcePoint" />
            <mxPoint x="120" y="50" as="targetPoint" />
          </mxGeometry>
        </mxCell>
        <mxCell id="eOBDICQYT13X9fMPjn8y-69" value="" style="endArrow=none;html=1;rounded=0;entryX=1;entryY=0.5;entryDx=0;entryDy=0;exitX=0;exitY=0.75;exitDx=0;exitDy=0;exitPerimeter=0;movable=1;resizable=1;rotatable=1;deletable=1;editable=1;locked=0;connectable=1;" edge="1" parent="eOBDICQYT13X9fMPjn8y-64" source="eOBDICQYT13X9fMPjn8y-67" target="eOBDICQYT13X9fMPjn8y-65">
          <mxGeometry width="50" height="50" relative="1" as="geometry">
            <mxPoint x="234" y="182.5" as="sourcePoint" />
            <mxPoint x="160" y="87.5" as="targetPoint" />
          </mxGeometry>
        </mxCell>
        <mxCell id="eOBDICQYT13X9fMPjn8y-70" value="" style="group;rotation=-30;" vertex="1" connectable="0" parent="eOBDICQYT13X9fMPjn8y-64">
          <mxGeometry x="-33" y="6" width="220" height="138" as="geometry" />
        </mxCell>
        <mxCell id="eOBDICQYT13X9fMPjn8y-71" value="" style="ellipse;whiteSpace=wrap;html=1;aspect=fixed;fillColor=#000000;movable=1;resizable=1;rotatable=1;deletable=1;editable=1;locked=0;connectable=1;rotation=-30;" vertex="1" parent="eOBDICQYT13X9fMPjn8y-70">
          <mxGeometry x="133" y="124" width="8" height="8" as="geometry" />
        </mxCell>
        <mxCell id="eOBDICQYT13X9fMPjn8y-72" value="" style="ellipse;whiteSpace=wrap;html=1;aspect=fixed;fillColor=#f8cecc;strokeColor=#b85450;movable=1;resizable=1;rotatable=1;deletable=1;editable=1;locked=0;connectable=1;rotation=-30;" vertex="1" parent="eOBDICQYT13X9fMPjn8y-70">
          <mxGeometry x="-16" y="58" width="20" height="20" as="geometry" />
        </mxCell>
        <mxCell id="eOBDICQYT13X9fMPjn8y-73" value="" style="ellipse;whiteSpace=wrap;html=1;aspect=fixed;fillColor=#d5e8d4;strokeColor=#82b366;movable=1;resizable=1;rotatable=1;deletable=1;editable=1;locked=0;connectable=1;rotation=-30;" vertex="1" parent="eOBDICQYT13X9fMPjn8y-70">
          <mxGeometry x="180" y="-3" width="20" height="20" as="geometry" />
        </mxCell>
        <mxCell id="eOBDICQYT13X9fMPjn8y-74" value="" style="endArrow=none;dashed=1;html=1;rounded=0;entryX=0.683;entryY=0.9;entryDx=0;entryDy=0;entryPerimeter=0;exitX=0;exitY=0;exitDx=0;exitDy=0;movable=1;resizable=1;rotatable=1;deletable=1;editable=1;locked=0;connectable=1;" edge="1" parent="eOBDICQYT13X9fMPjn8y-70" source="eOBDICQYT13X9fMPjn8y-71" target="eOBDICQYT13X9fMPjn8y-72">
          <mxGeometry width="50" height="50" relative="1" as="geometry">
            <mxPoint x="91" y="116" as="sourcePoint" />
            <mxPoint x="109" y="48" as="targetPoint" />
          </mxGeometry>
        </mxCell>
        <mxCell id="eOBDICQYT13X9fMPjn8y-75" value="" style="endArrow=none;dashed=1;html=1;rounded=0;entryX=1;entryY=0.5;entryDx=0;entryDy=0;exitX=0;exitY=0.75;exitDx=0;exitDy=0;exitPerimeter=0;movable=1;resizable=1;rotatable=1;deletable=1;editable=1;locked=0;connectable=1;" edge="1" parent="eOBDICQYT13X9fMPjn8y-70" source="eOBDICQYT13X9fMPjn8y-73" target="eOBDICQYT13X9fMPjn8y-71">
          <mxGeometry width="50" height="50" relative="1" as="geometry">
            <mxPoint x="274" y="105" as="sourcePoint" />
            <mxPoint x="163" y="60" as="targetPoint" />
          </mxGeometry>
        </mxCell>
        <mxCell id="eOBDICQYT13X9fMPjn8y-77" value="" style="group;rotation=-30;" vertex="1" connectable="0" parent="eOBDICQYT13X9fMPjn8y-64">
          <mxGeometry x="16" y="-58" width="220" height="138" as="geometry" />
        </mxCell>
        <mxCell id="eOBDICQYT13X9fMPjn8y-78" value="" style="ellipse;whiteSpace=wrap;html=1;aspect=fixed;fillColor=#000000;movable=1;resizable=1;rotatable=1;deletable=1;editable=1;locked=0;connectable=1;rotation=-30;" vertex="1" parent="eOBDICQYT13X9fMPjn8y-77">
          <mxGeometry x="133" y="124" width="8" height="8" as="geometry" />
        </mxCell>
        <mxCell id="eOBDICQYT13X9fMPjn8y-79" value="" style="ellipse;whiteSpace=wrap;html=1;aspect=fixed;fillColor=#f8cecc;strokeColor=#b85450;movable=1;resizable=1;rotatable=1;deletable=1;editable=1;locked=0;connectable=1;rotation=-30;" vertex="1" parent="eOBDICQYT13X9fMPjn8y-77">
          <mxGeometry x="-16" y="58" width="20" height="20" as="geometry" />
        </mxCell>
        <mxCell id="eOBDICQYT13X9fMPjn8y-80" value="" style="ellipse;whiteSpace=wrap;html=1;aspect=fixed;fillColor=#d5e8d4;strokeColor=#82b366;movable=1;resizable=1;rotatable=1;deletable=1;editable=1;locked=0;connectable=1;rotation=-30;" vertex="1" parent="eOBDICQYT13X9fMPjn8y-77">
          <mxGeometry x="180" y="-3" width="20" height="20" as="geometry" />
        </mxCell>
        <mxCell id="eOBDICQYT13X9fMPjn8y-81" value="" style="endArrow=none;html=1;rounded=0;entryX=0.683;entryY=0.9;entryDx=0;entryDy=0;entryPerimeter=0;exitX=0;exitY=0;exitDx=0;exitDy=0;movable=1;resizable=1;rotatable=1;deletable=1;editable=1;locked=0;connectable=1;" edge="1" parent="eOBDICQYT13X9fMPjn8y-77" source="eOBDICQYT13X9fMPjn8y-78" target="eOBDICQYT13X9fMPjn8y-79">
          <mxGeometry width="50" height="50" relative="1" as="geometry">
            <mxPoint x="91" y="116" as="sourcePoint" />
            <mxPoint x="109" y="48" as="targetPoint" />
          </mxGeometry>
        </mxCell>
        <mxCell id="eOBDICQYT13X9fMPjn8y-82" value="" style="endArrow=none;html=1;rounded=0;entryX=1;entryY=0.5;entryDx=0;entryDy=0;exitX=0;exitY=0.75;exitDx=0;exitDy=0;exitPerimeter=0;movable=1;resizable=1;rotatable=1;deletable=1;editable=1;locked=0;connectable=1;" edge="1" parent="eOBDICQYT13X9fMPjn8y-77" source="eOBDICQYT13X9fMPjn8y-80" target="eOBDICQYT13X9fMPjn8y-78">
          <mxGeometry width="50" height="50" relative="1" as="geometry">
            <mxPoint x="274" y="105" as="sourcePoint" />
            <mxPoint x="163" y="60" as="targetPoint" />
          </mxGeometry>
        </mxCell>
        <mxCell id="eOBDICQYT13X9fMPjn8y-86" value="" style="endArrow=classic;html=1;rounded=0;entryX=0;entryY=1;entryDx=0;entryDy=0;exitX=0.95;exitY=0.312;exitDx=0;exitDy=0;exitPerimeter=0;fillColor=#dae8fc;strokeColor=#6c8ebf;strokeWidth=2;dashed=1;" edge="1" parent="eOBDICQYT13X9fMPjn8y-77">
          <mxGeometry width="50" height="50" relative="1" as="geometry">
            <mxPoint x="97" y="181" as="sourcePoint" />
            <mxPoint x="133" y="132" as="targetPoint" />
          </mxGeometry>
        </mxCell>
      </root>
    </mxGraphModel>
  </diagram>
</mxfile>
